<svg width="25" height="24" viewBox="0 0 25 24" fill="none" xmlns="http://www.w3.org/2000/svg">
<path fill-rule="evenodd" clip-rule="evenodd" d="M17.807 18.3769H6.69298L5.70334 19.3666C5.47695 19.5929 5.1099 19.5929 4.88351 19.3666C4.65711 19.1401 4.65711 18.7731 4.88351 18.5466L5.05329 18.3769H4.71371C3.43304 18.3769 2.39485 17.3387 2.39485 16.058V14.8986C2.39485 13.6179 3.43304 12.5797 4.71371 12.5797H6.18335C5.98605 12.2386 5.87314 11.8427 5.87314 11.4203C5.87314 10.1396 6.91132 9.10146 8.19199 9.10146H10.5109C11.2034 9.10146 11.8251 9.40511 12.25 9.88651C12.6749 9.40511 13.2966 9.10146 13.9891 9.10146H16.308C17.5887 9.10146 18.6269 10.1396 18.6269 11.4203C18.6269 11.8427 18.5139 12.2386 18.3166 12.5797H19.7863C21.067 12.5797 22.1051 13.6179 22.1051 14.8986V16.058C22.1051 17.3387 21.067 18.3769 19.7863 18.3769H19.4467L19.6165 18.5466C19.8429 18.7731 19.8429 19.1401 19.6165 19.3666C19.3901 19.5929 19.023 19.5929 18.7966 19.3666L17.807 18.3769ZM19.7863 13.7392H4.71371C4.07338 13.7392 3.55428 14.2582 3.55428 14.8986V16.058C3.55428 16.6984 4.07338 17.2175 4.71371 17.2175H19.7863C20.4266 17.2175 20.9457 16.6984 20.9457 16.058V14.8986C20.9457 14.2582 20.4266 13.7392 19.7863 13.7392ZM16.308 12.5797C16.9483 12.5797 17.4674 12.0607 17.4674 11.4203C17.4674 10.78 16.9483 10.2609 16.308 10.2609H13.9891C13.3488 10.2609 12.8297 10.78 12.8297 11.4203C12.8297 12.0607 13.3488 12.5797 13.9891 12.5797H16.308ZM8.19199 12.5797H10.5109C11.1512 12.5797 11.6703 12.0607 11.6703 11.4203C11.6703 10.78 11.1512 10.2609 10.5109 10.2609H8.19199C7.55167 10.2609 7.03257 10.78 7.03257 11.4203C7.03257 12.0607 7.55167 12.5797 8.19199 12.5797ZM4.71371 10.8406C4.71371 11.1607 4.45416 11.4203 4.13399 11.4203C3.81383 11.4203 3.55428 11.1607 3.55428 10.8406V7.36232C3.55428 5.78364 4.64124 4.46375 6.04364 4.46375H18.4563C19.8587 4.46375 20.9457 5.78364 20.9457 7.36232V10.8406C20.9457 11.1607 20.6861 11.4203 20.366 11.4203C20.0459 11.4203 19.7863 11.1607 19.7863 10.8406V7.36232C19.7863 6.37965 19.1633 5.62317 18.4563 5.62317H6.04364C5.33669 5.62317 4.71371 6.37965 4.71371 7.36232V10.8406Z" fill="#596775"/>
</svg>
