<svg width="41" height="41" viewBox="0 0 41 41" fill="none" xmlns="http://www.w3.org/2000/svg">
<path d="M21.55 34.105H11.0167C5.75 34.105 4 30.605 4 27.0883V13.055C4 7.78833 5.75 6.03833 11.0167 6.03833H21.55C26.8167 6.03833 28.5667 7.78833 28.5667 13.055V27.0883C28.5667 32.355 26.8 34.105 21.55 34.105Z" stroke="#005B5B" stroke-width="1.5" stroke-linecap="round" stroke-linejoin="round"/>
<path d="M33.2 28.5718L28.5667 25.3218V14.8051L33.2 11.5551C35.4667 9.97175 37.3333 10.9384 37.3333 13.7218V26.4218C37.3333 29.2051 35.4667 30.1718 33.2 28.5718Z" stroke="#005B5B" stroke-width="1.5" stroke-linecap="round" stroke-linejoin="round"/>
<path d="M19.8333 18.405C21.214 18.405 22.3333 17.2857 22.3333 15.905C22.3333 14.5243 21.214 13.405 19.8333 13.405C18.4526 13.405 17.3333 14.5243 17.3333 15.905C17.3333 17.2857 18.4526 18.405 19.8333 18.405Z" stroke="#005B5B" stroke-width="1.5" stroke-linecap="round" stroke-linejoin="round"/>
</svg>
