<svg width="16" height="16" viewBox="0 0 16 16" fill="none" xmlns="http://www.w3.org/2000/svg">
<path d="M7.99998 9.44667C6.57998 9.44667 5.41998 8.29333 5.41998 6.86667C5.41998 5.44 6.57998 4.29333 7.99998 4.29333C9.41998 4.29333 10.58 5.44667 10.58 6.87334C10.58 8.3 9.41998 9.44667 7.99998 9.44667ZM7.99998 5.29333C7.13332 5.29333 6.41998 6 6.41998 6.87334C6.41998 7.74667 7.12665 8.45333 7.99998 8.45333C8.87332 8.45333 9.57998 7.74667 9.57998 6.87334C9.57998 6 8.86665 5.29333 7.99998 5.29333Z" fill="#002448"/>
<path d="M8 15.1734C7.01333 15.1734 6.01999 14.8 5.24666 14.06C3.28 12.1667 1.10666 9.14671 1.92666 5.55337C2.66666 2.29337 5.51333 0.833374 8 0.833374C8 0.833374 8 0.833374 8.00666 0.833374C10.4933 0.833374 13.34 2.29337 14.08 5.56004C14.8933 9.15337 12.72 12.1667 10.7533 14.06C9.97999 14.8 8.98666 15.1734 8 15.1734ZM8 1.83337C6.06 1.83337 3.56666 2.86671 2.90666 5.77337C2.18666 8.91337 4.16 11.62 5.94666 13.3334C7.1 14.4467 8.90666 14.4467 10.06 13.3334C11.84 11.62 13.8133 8.91337 13.1067 5.77337C12.44 2.86671 9.93999 1.83337 8 1.83337Z" fill="#002448"/>
</svg>
