<svg width="41" height="41" viewBox="0 0 41 41" fill="none" xmlns="http://www.w3.org/2000/svg">
<path d="M32.4887 27.0817C30.3281 25.2337 28.1354 24.1143 26.0013 25.9595L24.727 27.0747C23.7946 27.8842 22.0611 31.6667 15.3588 23.9566C8.65783 16.2563 12.6455 15.0574 13.5792 14.2548L14.8605 13.1383C16.9834 11.2889 16.1823 8.9608 14.6511 6.56432L13.7272 5.11275C12.1891 2.72185 10.5142 1.15165 8.38567 2.99821L7.23558 4.00314C6.29485 4.68845 3.66528 6.91605 3.02742 11.1479C2.25977 16.2256 4.68137 22.0403 10.2294 28.4202C15.7705 34.8029 21.1958 38.0089 26.3349 37.9531C30.6058 37.907 33.1852 35.6152 33.9919 34.782L35.1462 33.7756C37.2691 31.9305 35.9501 30.0518 33.7881 28.1997L32.4887 27.0817Z" fill="#002448"/>
</svg>
