<svg width="29" height="30" viewBox="0 0 29 30" fill="none" xmlns="http://www.w3.org/2000/svg">
<path d="M24.0484 28.7045L24.1839 4.65042C24.187 4.10252 24.8711 3.652 25.6929 3.65663C26.5148 3.66126 27.1937 4.11946 27.1906 4.66735L27.0552 28.7214C27.0521 29.2693 26.368 29.7199 25.5461 29.7152C24.7243 29.7106 24.0453 29.2524 24.0484 28.7045Z" fill="white"/>
<path d="M15.2119 28.6669L15.3022 12.6308C15.3053 12.0829 15.9893 11.6324 16.8112 11.637C17.633 11.6417 18.312 12.0999 18.3089 12.6478L18.2186 28.6838C18.2155 29.2317 17.5314 29.6822 16.7096 29.6776C15.8877 29.673 15.2088 29.2148 15.2119 28.6669Z" fill="white"/>
<path d="M6.43735 28.6293L6.46745 23.284C6.47054 22.7361 7.15463 22.2855 7.97648 22.2902C8.79833 22.2948 9.4773 22.753 9.47421 23.3009L9.44411 28.6463C9.44102 29.1941 8.75693 29.6447 7.93508 29.64C7.11324 29.6354 6.43426 29.1772 6.43735 28.6293Z" fill="white"/>
</svg>
