<svg width="24" height="24" viewBox="0 0 24 24" fill="none" xmlns="http://www.w3.org/2000/svg">
<path fill-rule="evenodd" clip-rule="evenodd" d="M5.39323 19.9901L6.65714 18.7429C6.87298 18.5288 7.22157 18.5301 7.43574 18.7458C7.64991 18.9616 7.64855 19.3099 7.4327 19.524L5.23045 21.6992C5.01579 21.912 4.66953 21.912 4.45488 21.6992L2.25262 19.524C2.03678 19.3099 2.03541 18.9616 2.24958 18.7458C2.46375 18.5301 2.81235 18.5288 3.02819 18.7429L4.2921 19.9901V9.4477L3.02819 10.6949C2.81235 10.909 2.46375 10.9077 2.24958 10.692C2.03541 10.4763 2.03678 10.1279 2.25262 9.9138L4.45488 7.7387C4.66953 7.52586 5.01579 7.52586 5.23045 7.7387L7.4327 9.9138C7.64855 10.1279 7.64991 10.4763 7.43574 10.692C7.22157 10.9077 6.87298 10.909 6.65714 10.6949L5.39323 9.4477V19.9901ZM9.47817 5.39109L10.7263 6.65418C10.9405 6.86989 10.9391 7.21825 10.7232 7.43229C10.5074 7.64632 10.1588 7.64495 9.94463 7.42924L7.76807 5.22841C7.55509 5.0139 7.55509 4.66786 7.76807 4.45335L9.94463 2.25252C10.1588 2.03681 10.5074 2.03545 10.7232 2.24948C10.9391 2.46351 10.9405 2.81188 10.7263 3.02759L9.47817 4.29067H20.0274L18.7793 3.02759C18.5651 2.81188 18.5666 2.46351 18.7824 2.24948C18.9982 2.03545 19.3468 2.03681 19.561 2.25252L21.7376 4.45335C21.9506 4.66786 21.9506 5.0139 21.7376 5.22841L19.561 7.42924C19.3468 7.64495 18.9982 7.64632 18.7824 7.43229C18.5666 7.21825 18.5651 6.86989 18.7793 6.65418L20.0274 5.39109H9.47817ZM21.9102 19.7093C21.9102 20.9249 20.9242 21.9102 19.7079 21.9102H10.8989C9.6826 21.9102 8.69661 20.9249 8.69661 19.7093V10.906C8.69661 9.69053 9.6826 8.70518 10.8989 8.70518H19.7079C20.9242 8.70518 21.9102 9.69053 21.9102 10.906V13.1069H20.809V10.906C20.809 10.2983 20.316 9.80556 19.7079 9.80556H10.8989C10.2907 9.80556 9.79774 10.2983 9.79774 10.906V19.7093C9.79774 20.317 10.2907 20.8097 10.8989 20.8097H19.7079C20.316 20.8097 20.809 20.317 20.809 19.7093H21.9102ZM21.9102 17.5085H20.809V15.3077H21.9102V17.5085Z" fill="#596775"/>
</svg>
