<svg width="24" height="25" viewBox="0 0 24 25" fill="none" xmlns="http://www.w3.org/2000/svg">
<path d="M12.53 21.0832H6.21C3.05 21.0832 2 18.9832 2 16.8732V8.45323C2 5.29323 3.05 4.24323 6.21 4.24323H12.53C15.69 4.24323 16.74 5.29323 16.74 8.45323V16.8732C16.74 20.0332 15.68 21.0832 12.53 21.0832Z" stroke="white" stroke-width="1.5" stroke-linecap="round" stroke-linejoin="round"/>
<path d="M19.52 17.7632L16.74 15.8132V9.50322L19.52 7.55322C20.88 6.60322 22 7.18322 22 8.85322V16.4732C22 18.1432 20.88 18.7232 19.52 17.7632Z" stroke="white" stroke-width="1.5" stroke-linecap="round" stroke-linejoin="round"/>
<path d="M11.5 11.6632C12.3284 11.6632 13 10.9916 13 10.1632C13 9.33478 12.3284 8.66321 11.5 8.66321C10.6716 8.66321 10 9.33478 10 10.1632C10 10.9916 10.6716 11.6632 11.5 11.6632Z" stroke="white" stroke-width="1.5" stroke-linecap="round" stroke-linejoin="round"/>
</svg>
