<svg width="25" height="24" viewBox="0 0 25 24" fill="none" xmlns="http://www.w3.org/2000/svg">
<path fill-rule="evenodd" clip-rule="evenodd" d="M4.64005 9.55117V6.70269C4.64005 5.74876 5.41342 4.97546 6.39049 4.97546C7.36756 4.97546 8.15233 5.74876 8.15233 6.70269V7.4723C8.15233 7.78692 7.8911 8.04196 7.56885 8.04196C7.2466 8.04196 6.98536 7.78692 6.98536 7.4723V6.70269C6.98536 6.37799 6.72306 6.11478 6.39049 6.11478C6.05791 6.11478 5.80701 6.37799 5.80701 6.70269V9.55117H12.8354C12.8354 8.9194 13.3595 8.40725 14.0061 8.40725H17.5184C18.165 8.40725 18.6892 8.9194 18.6892 9.55117H21.0307C21.6773 9.55117 22.2015 10.0634 22.2015 10.6951V13.5549C22.2015 15.6887 20.493 17.4327 18.3396 17.5521L18.8473 18.0482C19.0759 18.2716 19.0759 18.6337 18.8473 18.8571C18.6187 19.0804 18.248 19.0804 18.0194 18.8571L16.6906 17.5587H8.13899L6.81011 18.8571C6.58151 19.0804 6.21087 19.0804 5.98226 18.8571C5.75365 18.6337 5.75365 18.2716 5.98226 18.0482L6.48329 17.5587H6.39619C4.13311 17.5587 2.29852 15.7661 2.29852 13.5549V10.6951C2.29852 10.0634 2.8227 9.55117 3.46928 9.55117H4.64005ZM14.0061 9.55117V10.6951H17.5184V9.55117H14.0061ZM12.8354 10.6951H3.46928V13.5549C3.46928 15.1344 4.77971 16.4147 6.39619 16.4147H18.1038C19.7203 16.4147 21.0307 15.1344 21.0307 13.5549V10.6951H18.6892V14.1268C18.6892 14.7587 18.165 15.2708 17.5184 15.2708H14.0061C13.3595 15.2708 12.8354 14.7587 12.8354 14.1268V10.6951ZM14.0061 10.6951V14.1268H17.5184V12.983H15.4218C15.0986 12.983 14.8364 12.7268 14.8364 12.411C14.8364 12.0951 15.0986 11.8391 15.4218 11.8391H17.5184V10.6951H14.0061Z" fill="#596775"/>
</svg>
