<svg width="16" height="16" viewBox="0 0 16 16" fill="none" xmlns="http://www.w3.org/2000/svg">
<g clip-path="url(#clip0_2373_725)">
<path d="M13.0333 2.96472C11.8455 1.76505 10.2681 1.02934 8.58561 0.89028C6.90313 0.75122 5.22633 1.21797 3.85767 2.20634C2.48902 3.19471 1.5186 4.63963 1.12147 6.28048C0.724337 7.92133 0.926629 9.65008 1.69186 11.1549L0.94069 14.8018C0.932896 14.8381 0.932676 14.8756 0.940042 14.912C0.947409 14.9484 0.962204 14.9828 0.983503 15.0132C1.0147 15.0594 1.05924 15.0949 1.11117 15.1151C1.1631 15.1353 1.21994 15.1391 1.27411 15.1261L4.84832 14.2789C6.34892 15.0248 8.06547 15.2141 9.69253 14.8131C11.3196 14.4121 12.7516 13.4469 13.7338 12.0892C14.716 10.7315 15.1847 9.06936 15.0564 7.39854C14.9281 5.72772 14.2113 4.15659 13.0333 2.96472ZM11.9189 11.8594C11.097 12.6789 10.0388 13.2199 8.89316 13.4061C7.74756 13.5923 6.57241 13.4143 5.53332 12.8973L5.03514 12.6508L2.84391 13.1697L2.85039 13.1425L3.30447 10.937L3.06057 10.4556C2.52964 9.41292 2.34234 8.22891 2.52552 7.07323C2.70869 5.91755 3.25294 4.84949 4.08029 4.02206C5.11986 2.98281 6.52963 2.39899 7.99959 2.39899C9.46954 2.39899 10.8793 2.98281 11.9189 4.02206C11.9277 4.03221 11.9373 4.04175 11.9474 4.0506C12.9741 5.09254 13.5473 6.4981 13.5419 7.96087C13.5366 9.42364 12.9532 10.825 11.9189 11.8594Z" fill="#002448"/>
<path d="M11.7241 10.2415C11.4555 10.6645 11.0313 11.1821 10.4981 11.3105C9.564 11.5363 8.13042 11.3183 6.34656 9.65511L6.32451 9.63565C4.75601 8.18132 4.34864 6.97089 4.44724 6.01084C4.50172 5.46596 4.9558 4.97296 5.33852 4.65122C5.39902 4.59958 5.47078 4.56281 5.54803 4.54386C5.62529 4.5249 5.70591 4.52429 5.78345 4.54207C5.86098 4.55985 5.93329 4.59552 5.99457 4.64623C6.05586 4.69695 6.10442 4.7613 6.13639 4.83415L6.71371 6.1315C6.75123 6.21562 6.76513 6.30837 6.75393 6.39979C6.74273 6.49121 6.70685 6.57786 6.65014 6.65044L6.35824 7.02927C6.2956 7.10749 6.25781 7.20266 6.24972 7.30254C6.24162 7.40242 6.2636 7.50244 6.31283 7.58972C6.4763 7.87644 6.8681 8.29808 7.30271 8.68858C7.79051 9.12968 8.33151 9.53316 8.67401 9.67068C8.76566 9.70812 8.86642 9.71726 8.96331 9.69691C9.06019 9.67656 9.14876 9.62766 9.2176 9.55651L9.55621 9.21531C9.62155 9.15088 9.7028 9.10493 9.79168 9.08214C9.88057 9.05935 9.9739 9.06053 10.0622 9.08557L11.4335 9.47478C11.5091 9.49798 11.5785 9.53818 11.6362 9.59229C11.6939 9.6464 11.7385 9.71299 11.7665 9.78698C11.7946 9.86097 11.8053 9.94039 11.798 10.0192C11.7906 10.0979 11.7654 10.174 11.7241 10.2415Z" fill="#002448"/>
</g>
<defs>
<clipPath id="clip0_2373_725">
<rect width="16" height="16" fill="white"/>
</clipPath>
</defs>
</svg>
