<svg width="40" height="41" viewBox="0 0 40 41" fill="none" xmlns="http://www.w3.org/2000/svg">
<g clip-path="url(#clip0_2187_11228)">
<path d="M20 0.0717773C8.97154 0.0717773 0 9.04331 0 20.0718C0 23.8341 1.04538 27.4864 3.02846 30.6579C2.23846 33.4256 0.811538 38.661 0.796154 38.7156C0.759745 38.8485 0.75982 38.9887 0.79637 39.1215C0.83292 39.2542 0.904593 39.3747 1.00385 39.4702C1.20615 39.6649 1.49846 39.7341 1.76462 39.6525L9.69231 37.2141C12.804 39.0871 16.368 40.0752 20 40.0718C31.0285 40.0718 40 31.1002 40 20.0718C40 9.04331 31.0285 0.0717773 20 0.0717773ZM20 38.5333C16.5365 38.5367 13.1422 37.5633 10.2069 35.7248C10.1133 35.6663 10.0082 35.6285 9.89867 35.6142C9.78916 35.5998 9.67785 35.6093 9.57231 35.6418L2.65 37.7725C3.28958 35.4284 3.94035 33.0874 4.60231 30.7495C4.66385 30.5356 4.62923 30.3049 4.50846 30.1179C2.56542 27.128 1.53354 23.6376 1.53846 20.0718C1.53846 9.89255 9.82077 1.61024 20 1.61024C30.1792 1.61024 38.4615 9.89255 38.4615 20.0718C38.4615 30.251 30.1792 38.5333 20 38.5333Z" fill="#4CCA5B"/>
<path d="M33.0654 24.7842C31.6454 23.9957 30.4362 23.2049 29.5538 22.628C28.88 22.188 28.3931 21.8703 28.0362 21.6911C27.0385 21.1934 26.2823 21.5449 25.9946 21.8357C25.9588 21.8714 25.9266 21.9106 25.8985 21.9526C24.8623 23.5072 23.5092 24.9942 23.1131 25.0742C22.6554 25.0026 20.5131 23.7849 18.3838 22.0119C16.21 20.2003 14.8423 18.4657 14.6415 17.2842C16.0362 15.8488 16.5385 14.9457 16.5385 13.918C16.5385 12.8588 14.0677 8.43648 13.6208 7.98955C13.1723 7.54186 12.1623 7.47186 10.6185 7.77955C10.4697 7.80966 10.3331 7.88267 10.2254 7.98955C10.0385 8.17648 5.66461 12.6357 7.74307 18.0403C10.0246 23.9719 15.8808 30.8665 23.3469 31.9865C24.1954 32.1134 24.9908 32.1765 25.7354 32.1765C30.1277 32.1765 32.72 29.9665 33.45 25.5826C33.4765 25.4261 33.4538 25.2652 33.3849 25.1221C33.316 24.9791 33.2043 24.861 33.0654 24.7842ZM23.5754 30.4649C15.68 29.2811 10.7069 21.4588 9.17923 17.488C7.66384 13.5496 10.4585 10.038 11.16 9.24417C11.7308 9.14724 12.3315 9.10647 12.5823 9.14571C13.1062 9.87417 14.92 13.3011 15 13.918C15 14.3219 14.8685 14.8842 13.3023 16.4511C13.2307 16.5224 13.174 16.6072 13.1353 16.7005C13.0966 16.7938 13.0768 16.8939 13.0769 16.9949C13.0769 21.0226 21.5723 26.6103 23.0769 26.6103C24.3854 26.6103 26.0915 24.4111 27.0631 22.978C27.1633 22.9877 27.2605 23.0181 27.3485 23.0672C27.6254 23.2065 28.1054 23.5196 28.7123 23.9165C29.5138 24.4403 30.5785 25.1357 31.8354 25.8565C31.2646 28.6026 29.6692 31.3803 23.5754 30.4649Z" fill="#4CCA5B"/>
</g>
<defs>
<clipPath id="clip0_2187_11228">
<rect width="40" height="40" fill="white" transform="translate(0 0.0717773)"/>
</clipPath>
</defs>
</svg>
