<svg width="17" height="16" viewBox="0 0 17 16" fill="none" xmlns="http://www.w3.org/2000/svg">
<path d="M9.47573 9.65234C9.11084 9.8956 8.687 10.0242 8.25 10.0242C7.81304 10.0242 7.3892 9.8956 7.02431 9.65234L1.01433 5.64556C0.981148 5.62338 0.948584 5.60029 0.916672 5.57632L0.916672 12.1419C0.916672 12.8946 1.52754 13.492 2.26684 13.492H14.2331C14.9859 13.492 15.5833 12.8812 15.5833 12.1419V5.57629C15.5513 5.60032 15.5187 5.62346 15.4855 5.64567L9.47573 9.65234Z" fill="#002448"/>
<path d="M1.49102 4.93053L7.501 8.93734C7.72851 9.08902 7.98924 9.16485 8.24998 9.16485C8.51074 9.16485 8.7715 9.08899 8.99901 8.93734L15.009 4.93053C15.3686 4.69091 15.5833 4.28987 15.5833 3.85703C15.5833 3.11278 14.9779 2.50732 14.2336 2.50732H2.26638C1.52216 2.50735 0.916672 3.11281 0.916672 3.85775C0.916449 4.07007 0.968779 4.27915 1.069 4.46634C1.16921 4.65352 1.3142 4.813 1.49102 4.93053Z" fill="#002448"/>
</svg>
