<svg width="42" height="30" viewBox="0 0 42 30" fill="none" xmlns="http://www.w3.org/2000/svg">
<path d="M12.9365 29.3368C10.3348 29.3368 8.06425 28.7405 6.12497 27.548C4.1857 26.3556 2.68005 24.6873 1.60803 22.5433C0.536011 20.3992 0 17.8938 0 15.0271C0 12.1483 0.536011 9.63084 1.60803 7.47476C2.68005 5.31867 4.1857 3.64439 6.12497 2.45192C8.06425 1.25944 10.3348 0.663208 12.9365 0.663208C15.5383 0.663208 17.8088 1.25944 19.7481 2.45192C21.6873 3.64439 23.193 5.31867 24.265 7.47476C25.337 9.63084 25.873 12.1483 25.873 15.0271C25.873 17.8938 25.337 20.3992 24.265 22.5433C23.193 24.6873 21.6873 26.3556 19.7481 27.548C17.8088 28.7405 15.5383 29.3368 12.9365 29.3368ZM12.9546 24.8017C14.6409 24.8017 16.0382 24.3561 17.1463 23.4647C18.2545 22.5734 19.0735 21.3869 19.6035 19.9054C20.1456 18.4238 20.4166 16.7917 20.4166 15.009C20.4166 13.2384 20.1456 11.6123 19.6035 10.1307C19.0735 8.63712 18.2545 7.43862 17.1463 6.53523C16.0382 5.63184 14.6409 5.18015 12.9546 5.18015C11.2562 5.18015 9.84693 5.63184 8.72673 6.53523C7.61858 7.43862 6.79348 8.63712 6.25145 10.1307C5.72146 11.6123 5.45647 13.2384 5.45647 15.009C5.45647 16.7917 5.72146 18.4238 6.25145 19.9054C6.79348 21.3869 7.61858 22.5734 8.72673 23.4647C9.84693 24.3561 11.2562 24.8017 12.9546 24.8017Z" fill="#F1F5FA"/>
<path d="M36.1671 22.4276V21.8907C36.1671 21.5062 36.2466 21.1549 36.4057 20.8367C36.5681 20.5152 36.8034 20.2584 37.1117 20.0661C37.4232 19.8706 37.7994 19.7728 38.2402 19.7728C38.691 19.7728 39.0688 19.8689 39.3738 20.0612C39.6787 20.2534 39.909 20.5103 40.0648 20.8318C40.2239 21.1533 40.3034 21.5062 40.3034 21.8907V22.4276C40.3034 22.8121 40.2239 23.1651 40.0648 23.4866C39.9057 23.8048 39.6721 24.0616 39.3638 24.2572C39.0589 24.4494 38.6844 24.5455 38.2402 24.5455C37.7928 24.5455 37.415 24.4494 37.1067 24.2572C36.7985 24.0616 36.5648 23.8048 36.4057 23.4866C36.2466 23.1651 36.1671 22.8121 36.1671 22.4276ZM37.3255 21.8907V22.4276C37.3255 22.7127 37.3934 22.9712 37.5293 23.2032C37.6652 23.4352 37.9022 23.5512 38.2402 23.5512C38.575 23.5512 38.8087 23.4352 38.9412 23.2032C39.0738 22.9712 39.1401 22.7127 39.1401 22.4276V21.8907C39.1401 21.6057 39.0755 21.3471 38.9462 21.1151C38.8203 20.8831 38.5849 20.7671 38.2402 20.7671C37.9088 20.7671 37.6735 20.8831 37.5343 21.1151C37.3951 21.3471 37.3255 21.6057 37.3255 21.8907ZM31.0463 16.6009V16.064C31.0463 15.6795 31.1259 15.3266 31.285 15.0051C31.4474 14.6836 31.6827 14.4267 31.9909 14.2345C32.3025 14.0422 32.6787 13.9461 33.1195 13.9461C33.5703 13.9461 33.9481 14.0422 34.253 14.2345C34.5579 14.4267 34.7883 14.6836 34.9441 15.0051C35.0998 15.3266 35.1777 15.6795 35.1777 16.064V16.6009C35.1777 16.9854 35.0982 17.3384 34.9391 17.6599C34.7833 17.9781 34.5513 18.2349 34.2431 18.4305C33.9382 18.6227 33.5636 18.7188 33.1195 18.7188C32.6687 18.7188 32.2892 18.6227 31.981 18.4305C31.6761 18.2349 31.4441 17.9781 31.285 17.6599C31.1259 17.3384 31.0463 16.9854 31.0463 16.6009ZM32.2097 16.064V16.6009C32.2097 16.886 32.276 17.1445 32.4086 17.3765C32.5444 17.6085 32.7814 17.7245 33.1195 17.7245C33.4509 17.7245 33.6829 17.6085 33.8155 17.3765C33.9514 17.1445 34.0194 16.886 34.0194 16.6009V16.064C34.0194 15.779 33.9547 15.5204 33.8255 15.2884C33.6962 15.0564 33.4609 14.9404 33.1195 14.9404C32.7881 14.9404 32.5527 15.0564 32.4135 15.2884C32.2776 15.5204 32.2097 15.779 32.2097 16.064ZM31.5186 24.3367L38.5186 14.1549H39.7069L32.7069 24.3367H31.5186Z" fill="#F1F5FA"/>
</svg>
